<?xml version="1.0" encoding="utf-8"?>
<!-- Generator: Adobe Illustrator 27.5.0, SVG Export Plug-In . SVG Version: 6.00 Build 0)  -->
<svg version="1.1" xmlns="http://www.w3.org/2000/svg" xmlns:xlink="http://www.w3.org/1999/xlink" x="0px" y="0px"
	 viewBox="0 0 500 500" style="enable-background:new 0 0 500 500;" xml:space="preserve">
<g id="Background_Simple">
	<g>
		<path style="opacity:0.7;fill:#FFFFFF;" d="M67.931,167.086c0,0-27.877,71.988,11.297,144.503
			c39.174,72.516,119.879,110.802,184.469,143.548c64.59,32.746,131.661,16.799,163.534-36.838
			c31.873-53.637-11.845-91.928-11.897-168.418c-0.051-76.49,11.447-96.742-29.963-161.364
			c-41.41-64.623-143.059-78.925-219.9-30.996C88.631,105.45,67.931,167.086,67.931,167.086z"/>
	</g>
	<g>
		<path style="fill:#92E3A9;" d="M404.157,463.299c0,0,89.407-122.393,34.022-216.462s-165.432-29.509-186.377-117.298
			c-20.945-87.789-97.419-102.185-169.939,7.599s-55.175,262.449-16.77,326.161H404.157z"/>
		<path style="opacity:0.7;fill:#FFFFFF;" d="M404.157,463.299c0,0,89.407-122.393,34.022-216.462s-165.432-29.509-186.377-117.298
			c-20.945-87.789-97.419-102.185-169.939,7.599s-55.175,262.449-16.77,326.161H404.157z"/>
	</g>
</g>
<g id="Floor">
	
		<line style="fill:none;stroke:#263238;stroke-linecap:round;stroke-linejoin:round;stroke-miterlimit:10;" x1="51.662" y1="463.299" x2="450.224" y2="463.299"/>
</g>
<g id="Bricks">
	<g>
		
			<rect x="91.232" y="133.392" transform="matrix(-1 -1.224647e-16 1.224647e-16 -1 207.4114 276.8056)" style="fill:none;stroke:#263238;stroke-linecap:round;stroke-linejoin:round;stroke-miterlimit:10;" width="24.947" height="10.022"/>
		
			<rect x="111.214" y="144.858" transform="matrix(-1 -1.224647e-16 1.224647e-16 -1 247.3745 299.7388)" style="fill:none;stroke:#263238;stroke-linecap:round;stroke-linejoin:round;stroke-miterlimit:10;" width="24.947" height="10.022"/>
		
			<rect x="168.487" y="209.833" transform="matrix(-1 -1.224647e-16 1.224647e-16 -1 361.9218 429.6886)" style="fill:none;stroke:#263238;stroke-linecap:round;stroke-linejoin:round;stroke-miterlimit:10;" width="24.947" height="10.022"/>
		
			<rect x="156.014" y="223.062" transform="matrix(-1 -1.224647e-16 1.224647e-16 -1 336.9746 456.1462)" style="fill:none;stroke:#263238;stroke-linecap:round;stroke-linejoin:round;stroke-miterlimit:10;" width="24.947" height="10.022"/>
		
			<rect x="78.758" y="303.96" transform="matrix(-1 -1.224647e-16 1.224647e-16 -1 182.4642 617.9423)" style="fill:none;stroke:#263238;stroke-linecap:round;stroke-linejoin:round;stroke-miterlimit:10;" width="24.947" height="10.022"/>
		
			<rect x="92.427" y="316.429" transform="matrix(-1 -1.224647e-16 1.224647e-16 -1 209.8012 642.8792)" style="fill:none;stroke:#263238;stroke-linecap:round;stroke-linejoin:round;stroke-miterlimit:10;" width="24.947" height="10.022"/>
		
			<rect x="237.749" y="328.337" transform="matrix(-1 -1.224647e-16 1.224647e-16 -1 500.4462 666.6954)" style="fill:none;stroke:#263238;stroke-linecap:round;stroke-linejoin:round;stroke-miterlimit:10;" width="24.947" height="10.022"/>
		
			<rect x="224.567" y="341.677" transform="matrix(-1 -1.224647e-16 1.224647e-16 -1 474.0823 693.377)" style="fill:none;stroke:#263238;stroke-linecap:round;stroke-linejoin:round;stroke-miterlimit:10;" width="24.947" height="10.022"/>
		
			<rect x="86.639" y="394.045" transform="matrix(-1 -1.224647e-16 1.224647e-16 -1 198.2251 798.1115)" style="fill:none;stroke:#263238;stroke-linecap:round;stroke-linejoin:round;stroke-miterlimit:10;" width="24.947" height="10.022"/>
		
			<rect x="106.713" y="303.96" transform="matrix(-1 -1.224647e-16 1.224647e-16 -1 238.3734 617.9423)" style="fill:none;stroke:#263238;stroke-linecap:round;stroke-linejoin:round;stroke-miterlimit:10;" width="24.947" height="10.022"/>
		<path style="fill:none;stroke:#263238;stroke-linecap:round;stroke-linejoin:round;stroke-miterlimit:10;" d="M225.307,274.841
			c-24.255,0.266-49.255,0.266-72.76,0"/>
		<path style="fill:none;stroke:#263238;stroke-linecap:round;stroke-linejoin:round;stroke-miterlimit:10;" d="M235.297,274.841
			c-2.032,0-4.065,0-6.097,0"/>
		<path style="fill:none;stroke:#263238;stroke-linecap:round;stroke-linejoin:round;stroke-miterlimit:10;" d="M433.398,416.513
			c-24.255,0.266-49.255,0.266-72.76,0"/>
		<path style="fill:none;stroke:#263238;stroke-linecap:round;stroke-linejoin:round;stroke-miterlimit:10;" d="M443.388,416.513
			c-2.032,0-4.065,0-6.097,0"/>
		<path style="fill:none;stroke:#263238;stroke-linecap:round;stroke-linejoin:round;stroke-miterlimit:10;" d="M329.736,111.303
			c-24.255,0.266-49.255,0.266-72.76,0"/>
		<path style="fill:none;stroke:#263238;stroke-linecap:round;stroke-linejoin:round;stroke-miterlimit:10;" d="M339.726,111.303
			c-2.033,0-4.065,0-6.097,0"/>
		<path style="fill:none;stroke:#263238;stroke-linecap:round;stroke-linejoin:round;stroke-miterlimit:10;" d="M114.259,184.88
			c-10.641,0.181-21.285,0.216-31.926,0.114"/>
		<path style="fill:none;stroke:#263238;stroke-linecap:round;stroke-linejoin:round;stroke-miterlimit:10;" d="M319.772,396.409
			c-10.641,0.181-21.285,0.216-31.927,0.113"/>
		<path style="fill:none;stroke:#263238;stroke-linecap:round;stroke-linejoin:round;stroke-miterlimit:10;" d="M110.469,378.28
			c1.147,0,2.294,0,3.44,0"/>
		<path style="fill:none;stroke:#263238;stroke-linecap:round;stroke-linejoin:round;stroke-miterlimit:10;" d="M74.217,378.28
			c10.782,0,21.563,0,32.345,0"/>
		<path style="fill:none;stroke:#263238;stroke-linecap:round;stroke-linejoin:round;stroke-miterlimit:10;" d="M196.259,84.495
			c1.147,0,2.294,0,3.441,0"/>
		<path style="fill:none;stroke:#263238;stroke-linecap:round;stroke-linejoin:round;stroke-miterlimit:10;" d="M160.007,84.495
			c10.782,0,21.563,0,32.345,0"/>
		
			<rect x="390.734" y="367.045" style="fill:none;stroke:#263238;stroke-linecap:round;stroke-linejoin:round;stroke-miterlimit:10;" width="24.947" height="10.022"/>
		
			<rect x="370.753" y="355.578" style="fill:none;stroke:#263238;stroke-linecap:round;stroke-linejoin:round;stroke-miterlimit:10;" width="24.947" height="10.022"/>
		
			<rect x="313.479" y="290.603" style="fill:none;stroke:#263238;stroke-linecap:round;stroke-linejoin:round;stroke-miterlimit:10;" width="24.947" height="10.022"/>
		
			<rect x="325.953" y="277.374" style="fill:none;stroke:#263238;stroke-linecap:round;stroke-linejoin:round;stroke-miterlimit:10;" width="24.947" height="10.022"/>
		
			<rect x="403.208" y="196.476" style="fill:none;stroke:#263238;stroke-linecap:round;stroke-linejoin:round;stroke-miterlimit:10;" width="24.947" height="10.022"/>
		
			<rect x="389.539" y="184.008" style="fill:none;stroke:#263238;stroke-linecap:round;stroke-linejoin:round;stroke-miterlimit:10;" width="24.947" height="10.022"/>
		
			<rect x="244.217" y="172.1" style="fill:none;stroke:#263238;stroke-linecap:round;stroke-linejoin:round;stroke-miterlimit:10;" width="24.947" height="10.022"/>
		
			<rect x="257.399" y="158.759" style="fill:none;stroke:#263238;stroke-linecap:round;stroke-linejoin:round;stroke-miterlimit:10;" width="24.947" height="10.022"/>
		
			<rect x="337.097" y="84.888" style="fill:none;stroke:#263238;stroke-linecap:round;stroke-linejoin:round;stroke-miterlimit:10;" width="24.947" height="10.022"/>
		
			<rect x="375.253" y="196.476" style="fill:none;stroke:#263238;stroke-linecap:round;stroke-linejoin:round;stroke-miterlimit:10;" width="24.947" height="10.022"/>
		<path style="fill:none;stroke:#263238;stroke-linecap:round;stroke-linejoin:round;stroke-miterlimit:10;" d="M281.607,235.618
			c24.255-0.265,49.255-0.265,72.76,0"/>
		<path style="fill:none;stroke:#263238;stroke-linecap:round;stroke-linejoin:round;stroke-miterlimit:10;" d="M271.616,235.618
			c2.033,0,4.065,0,6.097,0"/>
		<path style="fill:none;stroke:#263238;stroke-linecap:round;stroke-linejoin:round;stroke-miterlimit:10;" d="M392.654,325.578
			c10.641-0.181,21.285-0.216,31.927-0.113"/>
		<path style="fill:none;stroke:#263238;stroke-linecap:round;stroke-linejoin:round;stroke-miterlimit:10;" d="M396.445,132.178
			c-1.147,0-2.294,0-3.44,0"/>
		<path style="fill:none;stroke:#263238;stroke-linecap:round;stroke-linejoin:round;stroke-miterlimit:10;" d="M432.697,132.178
			c-10.782,0-21.563,0-32.345,0"/>
	</g>
</g>
<g id="Character_3">
	<g>
		<path style="fill:#FFFFFF;stroke:#263238;stroke-linecap:round;stroke-linejoin:round;stroke-miterlimit:10;" d="M353.72,206.018
			l-16.698-12.719c0,0-20.263-38.341-21.415-39.696l-6.055,7.828c0,0,11.415,33.347,13.108,37.997
			c1.693,4.65,8.639,9.902,12.049,13.47c3.41,3.569,16.696,12.956,16.696,12.956L353.72,206.018z"/>
		<g>
			<path style="fill:#263238;" d="M270.456,318.289h-15.407c-9.635,0-17.594-7.521-18.138-17.141l-0.837-14.793h53.356
				l-0.837,14.793C288.05,310.768,280.091,318.289,270.456,318.289z"/>
			<g>
				<defs>
					<path id="XMLID_599_" d="M343.055,179.178c0-44.993-37.004-81.344-82.238-80.279c-43.412,1.022-78.465,37.043-78.365,80.467
						c0.049,21.37,8.454,40.768,22.113,55.124c8.183,8.6,14.131,19.077,16.852,30.632l0.531,2.254h81.613l0.311-1.322
						c2.833-12.034,8.995-22.955,17.455-31.971C334.798,219.727,343.055,200.421,343.055,179.178z"/>
				</defs>
				<use xlink:href="#XMLID_599_"  style="overflow:visible;fill:#FFFFFF;"/>
				<clipPath id="XMLID_00000037652259965964648600000005609767058030907565_">
					<use xlink:href="#XMLID_599_"  style="overflow:visible;"/>
				</clipPath>
				<path style="opacity:0.4;clip-path:url(#XMLID_00000037652259965964648600000005609767058030907565_);fill:#92E3A9;" d="
					M260.816,98.898c-43.412,1.022-78.465,37.043-78.365,80.467c0.049,21.37,8.454,40.768,22.113,55.124
					c8.183,8.601,14.131,19.077,16.852,30.632l0.531,2.254h81.613l0.311-1.322c2.833-12.034,8.995-22.955,17.455-31.971
					c13.473-14.357,21.73-33.663,21.73-54.906C343.055,134.184,306.051,97.834,260.816,98.898z M262.493,244.025
					c-39.595,0-71.693-32.098-71.693-71.693c0-39.595,32.098-71.693,71.693-71.693c39.595,0,71.693,32.098,71.693,71.693
					C334.186,211.926,302.088,244.025,262.493,244.025z"/>
				<use xlink:href="#XMLID_599_"  style="overflow:visible;fill:none;stroke:#263238;stroke-miterlimit:10;"/>
			</g>
			<path style="fill:#92E3A9;stroke:#263238;stroke-linecap:round;stroke-linejoin:round;stroke-miterlimit:10;" d="
				M235.351,307.919h54.804c8.783-4.87,14.911-13.997,15.516-24.691l1.39-24.57h-88.615l1.39,24.57
				C220.44,293.922,226.568,303.049,235.351,307.919z"/>
			<path style="fill:#92E3A9;stroke:#263238;stroke-linecap:round;stroke-linejoin:round;stroke-miterlimit:10;" d="
				M306.649,267.578l-86.148,6.955c-1.815,0.146-3.405-1.206-3.551-3.021v0c-0.146-1.815,1.206-3.405,3.021-3.551l86.148-6.955
				c1.815-0.147,3.405,1.206,3.551,3.021l0,0C309.816,265.842,308.464,267.432,306.649,267.578z"/>
			<path style="fill:#92E3A9;stroke:#263238;stroke-linecap:round;stroke-linejoin:round;stroke-miterlimit:10;" d="
				M306.633,280.616l-85.229,6.881c-1.815,0.146-3.405-1.206-3.551-3.021l0,0c-0.146-1.815,1.206-3.405,3.021-3.551l85.229-6.881
				c1.815-0.147,3.405,1.206,3.551,3.021l0,0C309.8,278.88,308.447,280.47,306.633,280.616z"/>
			<path style="fill:#92E3A9;stroke:#263238;stroke-linecap:round;stroke-linejoin:round;stroke-miterlimit:10;" d="
				M304.026,293.936l-78.535,6.34c-1.815,0.146-3.405-1.206-3.551-3.021l0,0c-0.146-1.815,1.206-3.405,3.021-3.551l78.535-6.34
				c1.815-0.147,3.405,1.206,3.551,3.021l0,0C307.193,292.199,305.841,293.789,304.026,293.936z"/>
		</g>
		<g>
			<g>
				<g>
					<path style="fill:#263238;stroke:#263238;stroke-miterlimit:10;" d="M325.194,446.99c0,0,1.813,11.117,0,16.309H288.41
						c0,0-1.554-3.891,0-6.344c1.554-2.453,13.211-3.857,16.838-7.17c3.627-3.313,7.512-9.012,7.512-9.012L325.194,446.99z"/>
					<polygon style="fill:#FFFFFF;stroke:#263238;stroke-linecap:round;stroke-linejoin:round;stroke-miterlimit:10;" points="
						287.719,461.34 325.675,461.34 326,463.299 287.719,463.299 					"/>
					<path style="fill:none;stroke:#FFFFFF;stroke-linecap:round;stroke-linejoin:round;stroke-miterlimit:10;" d="M316.352,445.635
						c0,0-3.462,0.837-3.851,0.966c-0.389,0.13-3.756,5.31-7.124,6.217c-3.367,0.907-6.735,0.733-6.217,2.374"/>
					
						<line style="fill:none;stroke:#FFFFFF;stroke-linecap:round;stroke-linejoin:round;stroke-miterlimit:10;" x1="308.688" y1="445.635" x2="312.631" y2="448.544"/>
					
						<line style="fill:none;stroke:#FFFFFF;stroke-linecap:round;stroke-linejoin:round;stroke-miterlimit:10;" x1="306.86" y1="448.182" x2="310.659" y2="450.973"/>
					
						<line style="fill:none;stroke:#FFFFFF;stroke-linecap:round;stroke-linejoin:round;stroke-miterlimit:10;" x1="304.433" y1="450.414" x2="307.73" y2="453.595"/>
					
						<line style="fill:none;stroke:#FFFFFF;stroke-linecap:round;stroke-linejoin:round;stroke-miterlimit:10;" x1="301.101" y1="452.036" x2="302.528" y2="455.192"/>
					<path style="fill:#FFFFFF;" d="M325.787,452.036c0,0-6.033-0.735-12.638,1.578c-6.606,2.313-8.884,4.336-8.716,4.944
						c0.168,0.607,0.945,2.414,0.945,2.414h3.31c0,0-1.196-2.114-0.958-2.414c0.238-0.299,11.527-4.703,18.057-3.926V452.036z"/>
				</g>
				<path style="fill:#263238;stroke:#263238;stroke-miterlimit:10;" d="M378.918,463.299c0,0,1.417-5.412-0.24-7.417
					c-2.976-3.601,0.363-6.621-2.624-7.872l-1.251,1.453c-0.243-1.475,0.454-5.956-5.087-6.54c-6.697-0.706-6.824,4.168-7.186,5.773
					l0.11-2.244c-2.855,0-1.376,2.851-5.706,7.514c-3.305,3.558-3.311,8.122-3.129,9.332H378.918z"/>
				<polygon style="fill:#FFFFFF;stroke:#263238;stroke-linecap:round;stroke-linejoin:round;stroke-miterlimit:10;" points="
					353.783,461.34 379.482,461.34 378.918,463.299 353.806,463.299 				"/>
				<path style="fill:none;stroke:#FFFFFF;stroke-linecap:round;stroke-linejoin:round;stroke-miterlimit:10;" d="M362.032,453.743
					c0,0,8.434-2.792,12.506,0.698"/>
				<path style="fill:none;stroke:#FFFFFF;stroke-linecap:round;stroke-linejoin:round;stroke-miterlimit:10;" d="M362.032,451.897
					c0,0,7.416-2.348,12.506,0.789"/>
				<path style="fill:none;stroke:#FFFFFF;stroke-linecap:round;stroke-linejoin:round;stroke-miterlimit:10;" d="M362.469,450.079
					c0,0,6.98-2.633,12.069,0.974"/>
				<path style="fill:#FFFFFF;" d="M356.934,453.966l0.832,0.819c0.235,0.232,0.274,0.592,0.097,0.87
					c-0.599,0.939-1.831,3.192-1.72,5.684h-1.236c0,0,0.431-3.316,1.781-5.662l-0.633-0.639L356.934,453.966z"/>
			</g>
			<path style="fill:none;stroke:#263238;stroke-linecap:round;stroke-linejoin:round;stroke-miterlimit:10;" d="M331.809,394.711
				c0,0-5.459,9.277-14.687,7.303"/>
			<g>
				<g>
					<defs>
						<path id="XMLID_592_" d="M337.579,289.076l-3.583,7.574c0,0-14.779,30.556-23.838,65.54c-0.214,0.827-4.9,17.402-1.143,58.666
							l-2.141,7.241l2.338,11.959c0,0-3.517,5.088-3.392,6.748c0,0,8.685,1.622,11.579,3.177c2.257,1.212,9.021,7.893,9.021,7.893
							c1.918-0.396,2.086-8.158,2.086-8.158s4.02-68.882,5.167-71.853c1.147-2.971,8.204-15.765,19.193-45.053
							c0,0,0.249,40.911,3.185,51.258c2.613,9.207-0.481,34.976-0.481,34.976l1.763,28.685c0,0-6.182,6.424-1.167,8.147
							c0,0,3.35-6.447,12.896-7.911c4.852-0.744,10.901,7.872,10.901,7.872c2.12-0.679-0.904-11.503-0.904-11.503
							c6.766-51.059,1.771-41.816,3.123-66.772c0.867-16.014,5.414-84.538,0.082-90.105L337.579,289.076z"/>
					</defs>
					<use xlink:href="#XMLID_592_"  style="overflow:visible;fill:#757575;"/>
					<clipPath id="XMLID_00000142883233097580387220000006601688521651776931_">
						<use xlink:href="#XMLID_592_"  style="overflow:visible;"/>
					</clipPath>
					<path style="opacity:0.2;clip-path:url(#XMLID_00000142883233097580387220000006601688521651776931_);" d="M384.816,312.668
						c-23.894,1.882-44.594-5.936-53.569-10.023c1.701-3.831,2.75-5.994,2.75-5.994l3.583-7.571l44.685-1.618
						C384.189,289.467,384.824,299.681,384.816,312.668z"/>
					<path style="opacity:0.2;clip-path:url(#XMLID_00000142883233097580387220000006601688521651776931_);" d="M352.665,333.334
						c-10.874,28.914-17.859,41.572-18.998,44.527c-0.652,1.709-2.254,25.1-3.501,44.734c-1.437-17.859-2.906-36.709-3.038-40.408
						c-0.264-7.357,5.053-17.454,5.854-20.063c0.801-2.601-1.007-5.433-1.007-5.433l9.569-12.063
						c-0.322-4.095,4.739-21.962,4.739-21.962C349.296,325.515,351.947,331.584,352.665,333.334z"/>
					
						<use xlink:href="#XMLID_592_"  style="overflow:visible;fill:none;stroke:#263238;stroke-linecap:round;stroke-linejoin:round;stroke-miterlimit:10;"/>
				</g>
				<path style="fill:none;stroke:#263238;stroke-linecap:round;stroke-linejoin:round;stroke-miterlimit:10;" d="M352.864,332.811
					c0,0-5.462-10.543-10.121-13.482"/>
				<path style="fill:none;stroke:#263238;stroke-linecap:round;stroke-linejoin:round;stroke-miterlimit:10;" d="M340.697,315.916
					c0,0,16.591,5.046,22.341,6.026"/>
				<path style="fill:none;stroke:#263238;stroke-linecap:round;stroke-linejoin:round;stroke-miterlimit:10;" d="M349.19,298.984
					c-0.716,13.812-5.588,16.165-0.877,19.178c0,0-0.129,6.461,2.211,10.555"/>
				<path style="fill:none;stroke:#263238;stroke-linecap:round;stroke-linejoin:round;stroke-miterlimit:10;" d="M378.26,293.708
					c0,0-1.96,21.228,4.573,25.221"/>
				<path style="fill:none;stroke:#263238;stroke-linecap:round;stroke-linejoin:round;stroke-miterlimit:10;" d="M382.833,300.548
					c0,0,0.49,14.135,0,25.522c0,0-1.633,48.133-3.266,54.176c-1.633,6.043,2.516,15.164,2.156,41.307"/>
				<path style="fill:none;stroke:#263238;stroke-linecap:round;stroke-linejoin:round;stroke-miterlimit:10;" d="M367.155,442.021
					c1.547-0.293,3.179-0.16,4.573,0.612"/>
				<path style="fill:none;stroke:#263238;stroke-linecap:round;stroke-linejoin:round;stroke-miterlimit:10;" d="M357.331,447.73
					c2.049-1.954,4.437-3.674,7.03-4.822"/>
				<path style="fill:none;stroke:#263238;stroke-linecap:round;stroke-linejoin:round;stroke-miterlimit:10;" d="M360.064,336.146
					c3.664,4.105,9.467,11.855,15.419,12.51"/>
				<path style="fill:none;stroke:#263238;stroke-linecap:round;stroke-linejoin:round;stroke-miterlimit:10;" d="M354.416,329.455
					c1.127,1.424,2.29,2.82,3.471,4.199"/>
				<path style="fill:none;stroke:#263238;stroke-linecap:round;stroke-linejoin:round;stroke-miterlimit:10;" d="M359.642,377.563
					c0,0,8.329,11.339,12.902,11.992"/>
				<path style="fill:none;stroke:#263238;stroke-linecap:round;stroke-linejoin:round;stroke-miterlimit:10;" d="M349.843,330.761
					c0,0-14.834,41.319-19.992,45.402c0,0-0.585,30.377-0.749,40.992c-0.163,10.616-2.613,24.72-2.613,24.72"/>
				<path style="fill:none;stroke:#263238;stroke-linecap:round;stroke-linejoin:round;stroke-miterlimit:10;" d="M310.647,441.568
					c0,0,5.716,1.975,8.493,3.234s3.756,4.036,3.756,4.036"/>
				<path style="fill:none;stroke:#263238;stroke-linecap:round;stroke-linejoin:round;stroke-miterlimit:10;" d="M325.101,361.263
					c7.969-5.002,18.47-11.246,22.702-20.05"/>
				<path style="fill:none;stroke:#263238;stroke-linecap:round;stroke-linejoin:round;stroke-miterlimit:10;" d="M318.159,365.384
					c1.506-0.833,2.991-1.705,4.464-2.595"/>
				<path style="fill:none;stroke:#263238;stroke-linecap:round;stroke-linejoin:round;stroke-miterlimit:10;" d="M343.255,304.57
					c4.285-0.063,8.975-0.626,12.63-3.043"/>
				<path style="fill:none;stroke:#263238;stroke-linecap:round;stroke-linejoin:round;stroke-miterlimit:10;" d="M336.451,304.171
					c1.226,0.174,2.462,0.277,3.698,0.341"/>
			</g>
			<path style="fill:#92E3A9;stroke:#263238;stroke-linecap:round;stroke-linejoin:round;stroke-miterlimit:10;" d="
				M358.627,214.585c0,0,25.178-7.144,39.661,0.6c3.605,1.928,11.829,8.172,11.541,15.669c-0.288,7.498-24.119,42.352-23.831,47.029
				c0.288,4.677-0.026,16.641-1.756,17.454c-1.73,0.814-40.028,1.929-49.443-0.497c-3.766-0.97,3.642-18.815,3.642-18.815
				S345.659,237.353,358.627,214.585z"/>
			<path style="fill:#FFFFFF;stroke:#263238;stroke-linecap:round;stroke-linejoin:round;stroke-miterlimit:10;" d="
				M394.478,213.255c0,0-15.913,6.378-21.139-0.284c0,0,2.857,0.284,4.585-2.194c0.671-0.948,1.174-2.303,1.283-4.242
				c0.08-1.181-2.254-16.325-1.283-17.683c14.663-20.505,17.911,9.6,17.911,9.6S390.643,211.375,394.478,213.255z"/>
			<path style="fill:#263238;" d="M383.335,205.055c0,0-1.03,4.723-5.411,5.722c0.671-0.948,1.174-2.303,1.283-4.242
				C382.173,205.674,383.335,205.055,383.335,205.055z"/>
			<path style="fill:#263238;" d="M397.325,207.916l-16.451,4.373v8.552c0,0-4.787,11.949-4.633,13.887
				c0.155,1.938,4.633,79.837,4.633,79.837s13.361-0.996,18.191-9.293c0,0-1.936-30.204,0-35.172
				c1.936-4.968,2.185-11.515,2.185-11.515s12.59-23.525,9.789-30.704c-2.801-7.18-11.54-14.169-11.54-14.169L397.325,207.916z"/>
			<path style="fill:none;stroke:#FFFFFF;stroke-linecap:round;stroke-linejoin:round;stroke-miterlimit:10;" d="M382.765,213.509
				c0,0,2.715,8.865,3.058,8.684c0.343-0.181,9.751-3.98,12.284-7.78"/>
			<path style="fill:#263238;" d="M377.125,211.672c-0.232-0.339-10.477-6.617-10.477-6.617l-5.267,1.394l-7.782-4.859
				c0,0-7.881,24.03-7.649,29.554c0.231,5.524-8.168,36.281-9.396,48.403c0,0,9.959-19.721,11.422-23.158
				c1.462-3.438,6.072-26.596,9.919-32.024c3.846-5.428,12.813-12.116,12.813-12.116L377.125,211.672z"/>
			<g>
				<path style="fill:#FFFFFF;stroke:#263238;stroke-linecap:round;stroke-linejoin:round;stroke-miterlimit:10;" d="
					M396.397,196.409c0.713-1.852,1.054-3.939,0.887-6.287c-1.08-15.169-4.667-18.7-10.578-17.715
					c-22.062,3.678-15.524,14.885-16.371,18.598s-3.973,4.001-3.544,5.695c0.169,0.668,2.768,0.735,2.768,0.735l0.157,3.502
					l0.992,0.238c0,0,0.798,7.967,2.829,8.892c2.571,1.172,10.249-3.466,10.236-6.344"/>
				<path style="fill:none;stroke:#263238;stroke-linecap:round;stroke-linejoin:round;stroke-miterlimit:10;" d="M372.057,185.565
					c0,0,3.101-0.633,4.651,1.844"/>
				<path style="fill:#263238;" d="M373.35,190.152c0.113,0.734,0.515,1.281,0.898,1.221c0.383-0.059,0.601-0.702,0.488-1.436
					c-0.113-0.734-0.515-1.281-0.898-1.222C373.456,188.775,373.237,189.418,373.35,190.152z"/>
				<path style="fill:none;stroke:#263238;stroke-linecap:round;stroke-linejoin:round;stroke-miterlimit:10;" d="M370.708,201.176
					c0,0,3.031,0,4.811-0.696"/>
				<path style="fill:none;stroke:#263238;stroke-linecap:round;stroke-linejoin:round;stroke-miterlimit:10;" d="M374.851,200.695
					c0,0-1.278,1.787-2.435,1.787s-1.212-0.894-1.212-0.894"/>
				<path style="fill:#263238;" d="M397.732,174.8c0,0,1.098-4.714-9.878-5.342c-8.578-0.491-16.404,0.266-19.299,5.815
					c-2.895,5.548-2.582,10.535,1.544,11.178c0,0,0.608-5.991,6.608-10.225c0,0-2.397,6.208,1.216,9.267
					c0.915,0.775,1.823,1.279,2.67,1.601c0.28,0.562,0.596,1.065,0.943,1.457c1.741,1.969,1.814,6.142,1.814,6.142l1.684-0.962
					c0,0-2.444-6.465,4.645-4.941c3.638,0.782,2.993,5.177,3.528,7.917c0.564,2.889,2.032,3.489,2.032,3.489
					c1.167-1.194,2.673-3.447,3.821-6.316c0.001,0,0.007,0,0.007-0.001c-0.001-0.011,3.623-2.576,3.623-6.37
					S401.683,177.522,397.732,174.8z"/>
				<path style="fill:#FFFFFF;stroke:#263238;stroke-linecap:round;stroke-linejoin:round;stroke-miterlimit:10;" d="
					M385.823,188.859c0,0,2.296-3.535,4.336-3.621c2.039-0.086,3.414,7.035,1.543,9.748c-1.871,2.713-3.712,3.675-4.561,2.859
					c-0.849-0.816-0.604-2.044-0.604-2.044"/>
			</g>
			<path style="fill:none;stroke:#FFFFFF;stroke-linecap:round;stroke-linejoin:round;stroke-miterlimit:10;" d="M359.027,216.779
				c0,0,3.98-4.323,6.694-8.863"/>
			<path style="fill:none;stroke:#FFFFFF;stroke-linecap:round;stroke-linejoin:round;stroke-miterlimit:10;" d="M359.027,207.916
				c0,0,1.809,0.491,3.347,2.861"/>
			<path style="fill:#263238;" d="M353.599,201.589l-8.235-3.463l-2.798-4.246c0,0-7.133,10.223-6.011,23.972l4.588,2.916
				l6.258,14.25L353.599,201.589z"/>
			<g>
				<path style="fill:#FFFFFF;stroke:#263238;stroke-linecap:round;stroke-linejoin:round;stroke-miterlimit:10;" d="
					M383.46,235.026c0,0,8.277,11.686,4.21,16.627c-1.912,2.323-18.776,7.929-18.776,7.929l-50.6-2.993l-16.84,2.993l-1.881,0.151
					c0,0-1.249-1.644,0.46-2.828c0,0-0.914-2.206-0.53-2.697c1.15-1.471,6.383-3.879,6.383-3.879s-6.05,1.512-3.551-1.737
					c1.697-2.207,8.154-2.669,11.132-4.619c2.454-1.608,0.31-10.544,5.637-8.946c0,0-1.512,3.663-1.028,7.598
					c0.079,0.643,0.219,3.844,0.219,3.844c2.695,3.094,31.65-0.908,34.138-0.98s14.617-1.916,14.617-1.916L383.46,235.026z"/>
				<path style="fill:none;stroke:#263238;stroke-linecap:round;stroke-linejoin:round;stroke-miterlimit:10;" d="M310.357,246.712
					c0,0,0.592,1.315,0.46,1.973c-0.132,0.658-1.907,1.907-1.907,1.907s-0.197,1.447,0,1.907c0.197,0.46-1.907,2.104-1.907,2.696
					c0,0.592-0.921,1.907-0.921,1.907"/>
				<path style="fill:none;stroke:#263238;stroke-linecap:round;stroke-linejoin:round;stroke-miterlimit:10;" d="M300.033,256.905
					c0.789,0.592,4.156-2.739,6.05-2.893"/>
				<path style="fill:none;stroke:#263238;stroke-linecap:round;stroke-linejoin:round;stroke-miterlimit:10;" d="M304.439,257.365
					c0,0-1.776,1.184-4.406,2.104"/>
			</g>
			<path style="fill:none;stroke:#FFFFFF;stroke-linecap:round;stroke-linejoin:round;stroke-miterlimit:10;" d="M382.038,234.836
				l1.297-2.191c0,0,3.391,1.451,4.314,0c0.923-1.451,11.209-6.198,13.187-6.066"/>
			<path style="fill:none;stroke:#FFFFFF;stroke-linecap:round;stroke-linejoin:round;stroke-miterlimit:10;" d="M386.198,254.011
				c0,0,2.505,2.572,3.165,1.482c0.659-1.09,9.596-1.564,13.328-4.651"/>
			<path style="fill:none;stroke:#FFFFFF;stroke-linecap:round;stroke-linejoin:round;stroke-miterlimit:10;" d="M383.824,264.424
				c0,0.396,6.593,21.099,9.231,24"/>
			<path style="fill:none;stroke:#263238;stroke-linecap:round;stroke-linejoin:round;stroke-miterlimit:10;" d="M370.374,266.534
				c-0.791,0.527-16.129,13.319-22.57,13.451"/>
			<path style="fill:none;stroke:#263238;stroke-linecap:round;stroke-linejoin:round;stroke-miterlimit:10;" d="M359.027,230.706
				c0.006,0.752,4.547,6.95,6.694,8.664"/>
		</g>
	</g>
</g>
<g id="Character_2">
	<g>
		<path style="fill:#FFFFFF;stroke:#263238;stroke-linecap:round;stroke-linejoin:round;stroke-miterlimit:10;" d="M298.74,298.547
			c2.667,0-1.421,4.321-1.421,4.321c-0.264,5.67-1.815,9.209-1.815,9.209l8.276,12.801l-7.121,5.661l-7.229-14.677
			c0,0-6.312-2.258-4.795-6.026c0.947-2.353,3.98-2.616,3.98-2.616C292.571,302.604,298.74,298.547,298.74,298.547z"/>
		<g>
			<defs>
				<path id="XMLID_598_" d="M291.71,322.905c0,0,4.354-6.703,9.003-6.26l1.748,4.004c0,0,2.868,0.151,4.599,4.229
					c1.731,4.078,11.321,15.419,11.321,15.419l-13.894,14.418c0,0-11.599-24.386-10.993-28.342L291.71,322.905z"/>
			</defs>
			<use xlink:href="#XMLID_598_"  style="overflow:visible;fill:#BFBFBF;"/>
			<clipPath id="XMLID_00000094580370742160788800000007082865664655500968_">
				<use xlink:href="#XMLID_598_"  style="overflow:visible;"/>
			</clipPath>
			<path style="opacity:0.2;clip-path:url(#XMLID_00000094580370742160788800000007082865664655500968_);" d="M291.71,322.905
				c0,0,4.354-6.703,9.003-6.26l1.748,4.004c0,0,2.868,0.151,4.599,4.229c1.731,4.078,11.321,15.419,11.321,15.419l-13.894,14.418
				c0,0-11.599-24.386-10.993-28.342L291.71,322.905z"/>
			
				<use xlink:href="#XMLID_598_"  style="overflow:visible;fill:none;stroke:#263238;stroke-linecap:round;stroke-linejoin:round;stroke-miterlimit:10;"/>
		</g>
		<g>
			<defs>
				<path id="XMLID_596_" d="M325.789,288.594c0,0-17.572,2.59-14.44,22.877c3.132,20.287,1.174,23.134,1.352,31.498
					c0.178,8.364,5.681,11.745,5.681,11.745l4.285-14.499c0,0-2.135,2.754-1.424-7.924s0.89-24.38,0.89-24.38"/>
			</defs>
			<use xlink:href="#XMLID_596_"  style="overflow:visible;fill:#92E3A9;"/>
			<clipPath id="XMLID_00000089571618724111113510000014866686304023410070_">
				<use xlink:href="#XMLID_596_"  style="overflow:visible;"/>
			</clipPath>
			<path style="opacity:0.2;clip-path:url(#XMLID_00000089571618724111113510000014866686304023410070_);" d="M325.789,288.594
				c0,0-17.572,2.59-14.44,22.877c3.132,20.287,1.174,23.134,1.352,31.498c0.178,8.364,5.681,11.745,5.681,11.745l4.285-14.499
				c0,0-2.135,2.754-1.424-7.924s0.89-24.38,0.89-24.38"/>
			
				<use xlink:href="#XMLID_596_"  style="overflow:visible;fill:none;stroke:#263238;stroke-linecap:round;stroke-linejoin:round;stroke-miterlimit:10;"/>
		</g>
		<path style="fill:none;stroke:#263238;stroke-linecap:round;stroke-linejoin:round;stroke-miterlimit:10;" d="M314.954,319.776
			c0,0,1.958,11.033,0.535,18.626"/>
		<path style="fill:#FFFFFF;stroke:#263238;stroke-linecap:round;stroke-linejoin:round;stroke-miterlimit:10;" d="M276.25,334.401
			c-2.613-4.397-3.086-7.832-3.086-7.832c1.104-1.448,0.474-8.194,0.515-8.87c0.033-0.555-3.591-4.08-5.042-8.831
			c0,0-1.628,1.477-1.553,3.27c0.084,2.017,1.054,3.511,0.696,3.851c-1.905,1.804-6.924-0.322-8.439-0.857
			c-3.363-1.187-4.983,0.566-3.297,2.44c0.593,0.659,1.888,0.18,1.774,1.799c-0.113,1.618-0.369,0.219,0.493,2.829
			s0.546,3.444,2.504,4.748c1.958,1.304,5.076,3.403,5.076,3.403l4.068,8.598L276.25,334.401z"/>
		<path style="fill:#263238;" d="M317.569,399.15c0,0,6.996-10.352,24.435-10.933c17.44-0.581,16.569,9.834,16.569,9.834
			s9.056,13.286,7.989,23.68c-1.068,10.394-14.683,19.648-14.683,19.648s27.822,6.51,31.025,5.159
			c3.203-1.351,9.637,12.474,7.146,15.575c-2.491,3.101-81.146-2.202-81.146-2.202s-7.83-9.216-8.186-15.654
			c-0.356-6.438,17.329-31.141,16.85-32.314C317.091,410.771,317.569,399.15,317.569,399.15z"/>
		<path style="fill:#263238;" d="M347.046,410.891c0,0,2.337,19.283-7.58,22.631l-32.646,13.123c0,0,45.432,3.935,52.35,2.537
			c6.918-1.397,16.63,12.637,16.63,12.637s-68.773,0-82.901,0c-14.128,0-22.195-11.187-19.348-20.203s41.528-35.545,41.528-35.545
			s-2-9.736,19.214-16.893C353.429,382.723,347.046,410.891,347.046,410.891z"/>
		<g>
			<defs>
				<path id="XMLID_597_" d="M353.75,384.31c0,0,5,7.75,3.22,9.51c0,0-20.1-7.17-40.68,9.31c-0.38,0.3-0.75,0.61-1.13,0.93
					l-1.49-5.28l3.63-2.98c0,0-0.66-2.62-1.18-5.92c-0.55-3.42-0.95-7.56-0.35-10.32c0.06-0.29-0.74-1.49-1.68-3.64c0,0,0,0-0.01,0
					c-0.86-1.99-1.85-4.79-2.36-8.46c-0.62-4.33-0.58-9.88,1.07-16.71c0.69-2.88,1.66-5.98,3-9.32c2.92-7.32,17.69-10.76,34.88-6.29
					c2.19,0.57,3.87,1.79,5.14,3.49C364.49,350.27,353.75,384.31,353.75,384.31z"/>
			</defs>
			<use xlink:href="#XMLID_597_"  style="overflow:visible;fill:#BFBFBF;"/>
			<clipPath id="XMLID_00000036213643142964926460000012464518536454226823_">
				<use xlink:href="#XMLID_597_"  style="overflow:visible;"/>
			</clipPath>
			<g style="clip-path:url(#XMLID_00000036213643142964926460000012464518536454226823_);">
				<path style="opacity:0.2;" d="M311.72,367.46c-0.62-4.33-0.58-9.88,1.07-16.71c2.13-0.67,3.64-1.16,3.64-1.16
					S318.8,356.39,311.72,367.46z"/>
				<path style="opacity:0.2;" d="M316.12,389.88c-0.55-3.42-0.95-7.56-0.35-10.32c0.06-0.29-0.74-1.49-1.68-3.64
					c0,0,8.39,6.58,11.7,5.99C327.79,381.56,321.46,386.17,316.12,389.88z"/>
				<path style="opacity:0.2;" d="M353.75,384.31c0,0,5,7.75,3.22,9.51c0,0-20.1-7.17-40.68,9.31c3.94-4.96,9.96-10.78,17.44-12.5
					c13.76-3.17,19.13-2.72,19.13-2.72l-4.46-5.78c0,0-15.04-0.03-22.61-11.39c0,0,5.54,2,12.24,2.14
					c5.6,0.12,12.21-4.57,14.22-6.11c-1.71,1.12-6.99,3.16-15.8-5.62c-10.91-10.88-11.47-31.19,11.95-25.48
					c2.63,0.64,5.1,1.65,7.41,2.96C364.49,350.27,353.75,384.31,353.75,384.31z"/>
			</g>
			
				<use xlink:href="#XMLID_597_"  style="overflow:visible;fill:none;stroke:#263238;stroke-linecap:round;stroke-linejoin:round;stroke-miterlimit:10;"/>
		</g>
		<path style="fill:none;stroke:#FFFFFF;stroke-linecap:round;stroke-linejoin:round;stroke-miterlimit:10;" d="M354.817,418.779
			c0.178,6.94-9.885,14.058-15.62,13.525c0,0-9.565,6.969-20.64,9.624"/>
		<path style="fill:none;stroke:#FFFFFF;stroke-linecap:round;stroke-linejoin:round;stroke-miterlimit:10;" d="M294.906,443.158
			c0,0,13.312-1.421,18.223,0.951c4.911,2.371,29.342,5.914,33.38,5.21"/>
		<path style="fill:none;stroke:#FFFFFF;stroke-linecap:round;stroke-linejoin:round;stroke-miterlimit:10;" d="M337.496,404.062
			c0,0,6.525-1.37,11.389,0c0,0,0.712,7.302,0,11.336l-5.536,2.847c0,0-5.497-1.78-5.853-2.135c-0.356-0.356-0.311-7.83-0.808-9.254
			"/>
		<path style="fill:none;stroke:#FFFFFF;stroke-linecap:round;stroke-linejoin:round;stroke-miterlimit:10;" d="M365.257,417.296
			l-1.405,0.949l-3.459-3.085c0.119-3.322-2.729-10.44-2.729-10.44s2.178-0.332,3.796,0.593"/>
		<path style="fill:none;stroke:#FFFFFF;stroke-linecap:round;stroke-linejoin:round;stroke-miterlimit:10;" d="M352.34,430.353
			c0,0,3.545,2.484,8.29,1.298"/>
		<path style="fill:none;stroke:#FFFFFF;stroke-linecap:round;stroke-linejoin:round;stroke-miterlimit:10;" d="M350.902,441.927
			c0,0-5.413,3.723-14.214,1.706"/>
		<path style="fill:none;stroke:#FFFFFF;stroke-linecap:round;stroke-linejoin:round;stroke-miterlimit:10;" d="M336.688,431.532
			c0,0-8.208-2.706-10.106-6.514"/>
		<path style="fill:none;stroke:#FFFFFF;stroke-linecap:round;stroke-linejoin:round;stroke-miterlimit:10;" d="M321.243,429.634
			c0.593,0.475,5.339,1.898,10.392,1.898"/>
		<path style="fill:none;stroke:#FFFFFF;stroke-linecap:round;stroke-linejoin:round;stroke-miterlimit:10;" d="M292.899,438.887
			c0,0,4.14,1.026,5.21,2.491"/>
		<path style="fill:none;stroke:#FFFFFF;stroke-linecap:round;stroke-linejoin:round;stroke-miterlimit:10;" d="M344.258,451.344
			c0,0-4.034,2.61-3.915,6.051"/>
		<g>
			<path style="fill:#92E3A9;stroke:#263238;stroke-linecap:round;stroke-linejoin:round;stroke-miterlimit:10;" d="
				M376.066,451.484c0.221-5.732,5.512-3.355,5.512-3.355s3.876-5.684,7.624-4.362c3.748,1.323,4.722,3.307,10.674,5.401
				c5.952,2.094,14.064,0.449,16.268,6.122c2.205,5.673-0.615,8.85-14.064,7.813c-13.448-1.038-16.975-1.478-16.975-1.478
				S375.625,462.948,376.066,451.484z"/>
			<path style="fill:none;stroke:#263238;stroke-linecap:round;stroke-linejoin:round;stroke-miterlimit:10;" d="M381.297,450.271
				c0,0-0.602,3.527,2.706,6.449"/>
			<path style="fill:#BFBFBF;stroke:#263238;stroke-linecap:round;stroke-linejoin:round;stroke-miterlimit:10;" d="
				M386.784,443.768c-2.862,1.14-3.222,7.716,3.392,11.905c6.614,4.189,7.943,0.605,12.125,4.115
				c4.182,3.509,10.738,4.043,14.518,1.287c3.78-2.756,0.694-8.047-6.361-10.803c-7.055-2.756-9.304,0.015-13.187-2.142
				C393.387,445.972,392.872,441.343,386.784,443.768z"/>
			<path style="fill:none;stroke:#263238;stroke-linecap:round;stroke-linejoin:round;stroke-miterlimit:10;" d="M389.073,445.029
				c-0.22,0.723,0,7.337,0,7.337"/>
			
				<line style="fill:none;stroke:#263238;stroke-linecap:round;stroke-linejoin:round;stroke-miterlimit:10;" x1="392.402" y1="445.348" x2="392.402" y2="455.291"/>
			
				<line style="fill:none;stroke:#263238;stroke-linecap:round;stroke-linejoin:round;stroke-miterlimit:10;" x1="395.907" y1="448.129" x2="395.907" y2="456.555"/>
			
				<line style="fill:none;stroke:#263238;stroke-linecap:round;stroke-linejoin:round;stroke-miterlimit:10;" x1="399.765" y1="450.271" x2="399.324" y2="456.72"/>
			
				<line style="fill:none;stroke:#263238;stroke-linecap:round;stroke-linejoin:round;stroke-miterlimit:10;" x1="404.064" y1="450.319" x2="404.064" y2="459.31"/>
			
				<line style="fill:none;stroke:#263238;stroke-linecap:round;stroke-linejoin:round;stroke-miterlimit:10;" x1="408.26" y1="451.23" x2="408.26" y2="461.074"/>
			
				<line style="fill:none;stroke:#263238;stroke-linecap:round;stroke-linejoin:round;stroke-miterlimit:10;" x1="412.993" y1="452.956" x2="413.434" y2="460.413"/>
		</g>
		<g>
			<path style="fill:#92E3A9;stroke:#263238;stroke-linecap:round;stroke-linejoin:round;stroke-miterlimit:10;" d="M363.12,446.304
				c-5.83,1.037-10.462,4.155-10.462,4.155s-2.11-3.106-4.085-0.081c-1.975,3.026-0.542,13.673,4.087,11.546
				c0,0,6.614,2.172,19.952,0.849c13.338-1.323,0.661-8.67,0.661-8.67L363.12,446.304z"/>
			<path style="fill:#BFBFBF;stroke:#263238;stroke-linecap:round;stroke-linejoin:round;stroke-miterlimit:10;" d="
				M364.335,446.369c-5.186-1.061-8.101,7.788-5.652,12.023c2.449,4.235,4.522,4.235,13.753,4.235
				c9.232,0,18.463,0.329,17.898-8.524c-0.565-8.853-13.205-6.616-16.211-5.498C371.117,449.724,367.114,446.938,364.335,446.369z"
				/>
			
				<line style="fill:none;stroke:#263238;stroke-linecap:round;stroke-linejoin:round;stroke-miterlimit:10;" x1="362.691" y1="448.333" x2="363.212" y2="460.238"/>
			
				<line style="fill:none;stroke:#263238;stroke-linecap:round;stroke-linejoin:round;stroke-miterlimit:10;" x1="366.549" y1="449.435" x2="367.21" y2="460.238"/>
			
				<line style="fill:none;stroke:#263238;stroke-linecap:round;stroke-linejoin:round;stroke-miterlimit:10;" x1="369.856" y1="449.987" x2="370.517" y2="460.789"/>
			
				<line style="fill:none;stroke:#263238;stroke-linecap:round;stroke-linejoin:round;stroke-miterlimit:10;" x1="373.809" y1="450.648" x2="374.816" y2="460.789"/>
			
				<line style="fill:none;stroke:#263238;stroke-linecap:round;stroke-linejoin:round;stroke-miterlimit:10;" x1="377.793" y1="449.435" x2="378.716" y2="460.789"/>
			
				<line style="fill:none;stroke:#263238;stroke-linecap:round;stroke-linejoin:round;stroke-miterlimit:10;" x1="381.871" y1="449.435" x2="383.194" y2="460.238"/>
			
				<line style="fill:none;stroke:#263238;stroke-linecap:round;stroke-linejoin:round;stroke-miterlimit:10;" x1="385.839" y1="449.987" x2="386.942" y2="458.474"/>
			<path style="fill:none;stroke:#263238;stroke-linecap:round;stroke-linejoin:round;stroke-miterlimit:10;" d="M351.888,452.191
				c0,0-0.969,4.707,0.551,7.385"/>
		</g>
		<path style="fill:#BFBFBF;stroke:#263238;stroke-linecap:round;stroke-linejoin:round;stroke-miterlimit:10;" d="M324.584,332.252
			c-0.975,0.185-7.892,0.422-10.799,1.385c-7.367,2.441-26.109,18.263-26.109,18.263l-12.872-22.735c0,0-5.612-0.969-8.382,4.02
			l1.469,4.227c0,0-0.929,3.671-1.066,5.557c-0.331,4.561,9.513,28.306,14.309,29.704c7.493,2.185,28.123-13.416,28.123-13.416
			s8.653-5.768,9.535-11.142"/>
		<g>
			<defs>
				<path id="XMLID_595_" d="M316.218,295.423c4.957-9.608,14.035-6.262,14.035-6.262c17.615-3.347,18.155,17.165,19.757,27.997
					c1.602,10.841,7.431,13.315,9.078,22.393c0.261,1.421,0.234,3.806-0.117,6.568c-0.612-1.871-1.601-2.375-1.601-2.375
					c0.342,11.732-6.612,17.552-7.044,17.894c4.912-6.757,4.318-11.138,4.318-11.138c-1.898,6.882-9.258,13.648-9.258,13.648
					s-6.289-1.421-9.23-10.571c-2.618-8.133-6.082-10.958-6.298-11.129c0.144,0.27,3.185,5.722,5.245,14.772
					c-3.221-4.48-6.352-10.211-9.311-15.852c-12.28-23.4-10.778-33.099-10.778-33.099"/>
			</defs>
			<use xlink:href="#XMLID_595_"  style="overflow:visible;fill:#92E3A9;"/>
			<clipPath id="XMLID_00000011720544192095901370000007136602431127817115_">
				<use xlink:href="#XMLID_595_"  style="overflow:visible;"/>
			</clipPath>
			<path style="opacity:0.2;clip-path:url(#XMLID_00000011720544192095901370000007136602431127817115_);" d="M316.218,295.423
				c4.957-9.608,14.035-6.262,14.035-6.262c17.615-3.347,18.155,17.165,19.757,27.997c1.602,10.841,7.431,13.315,9.078,22.393
				c0.261,1.421,0.234,3.806-0.117,6.568c-0.612-1.871-1.601-2.375-1.601-2.375c0.342,11.732-6.612,17.552-7.044,17.894
				c4.912-6.757,4.318-11.138,4.318-11.138c-1.898,6.882-9.258,13.648-9.258,13.648s-6.289-1.421-9.23-10.571
				c-2.618-8.133-6.082-10.958-6.298-11.129c0.144,0.27,3.185,5.722,5.245,14.772c-3.221-4.48-6.352-10.211-9.311-15.852
				c-12.28-23.4-10.778-33.099-10.778-33.099"/>
			
				<use xlink:href="#XMLID_595_"  style="overflow:visible;fill:none;stroke:#263238;stroke-linecap:round;stroke-linejoin:round;stroke-miterlimit:10;"/>
		</g>
		<path style="fill:none;stroke:#263238;stroke-linecap:round;stroke-linejoin:round;stroke-miterlimit:10;" d="M331.505,291.066
			c0,0,9.016-5.82,12.338,11.564c3.322,17.384,6.05,19.163,7.711,27.705c1.661,8.542-0.119,15.423-2.61,18.033"/>
		<path style="fill:none;stroke:#263238;stroke-linecap:round;stroke-linejoin:round;stroke-miterlimit:10;" d="M332.691,293.913
			c3.084,5.813,5.457,13.643,6.406,28.117c0.949,14.474,0.628,29.41,6.406,33.811"/>
		<path style="fill:none;stroke:#263238;stroke-linecap:round;stroke-linejoin:round;stroke-miterlimit:10;" d="M322.963,292.253
			c0,0-7.83,3.915-2.135,15.66c5.695,11.745,11.864,21.117,11.864,27.88c0,6.762,1.84,10.307,5.339,11.508"/>
		<path style="fill:none;stroke:#263238;stroke-linecap:round;stroke-linejoin:round;stroke-miterlimit:10;" d="M297.319,302.868
			c0,0-2.242,3.56-2.374,4.615"/>
		<path style="fill:none;stroke:#263238;stroke-linecap:round;stroke-linejoin:round;stroke-miterlimit:10;" d="M287.677,351.9
			c0,0-5.939,2.395-5.204,7.506"/>
		<path style="fill:none;stroke:#263238;stroke-linecap:round;stroke-linejoin:round;stroke-miterlimit:10;" d="M281.033,350.986
			c0,0,2.199-2.247,4.011-1.392"/>
		<path style="fill:none;stroke:#263238;stroke-linecap:round;stroke-linejoin:round;stroke-miterlimit:10;" d="M270.549,334.502
			c0,0,3.688-2.757,5.701-2.492"/>
		<path style="fill:none;stroke:#263238;stroke-linecap:round;stroke-linejoin:round;stroke-miterlimit:10;" d="M302.461,320.648
			c0,0-3.692,0.795-6.33,3.26"/>
		<path style="fill:none;stroke:#263238;stroke-linecap:round;stroke-linejoin:round;stroke-miterlimit:10;" d="M320.392,353.44
			c-0.194,0-4.768,3.532-7.921,3.348"/>
		<path style="fill:none;stroke:#263238;stroke-linecap:round;stroke-linejoin:round;stroke-miterlimit:10;" d="M324.391,368.601
			c-0.04,1.256,12.024,15.443,25.179,13.314"/>
	</g>
</g>
<g id="Character_1">
	<g>
		<path style="fill:#263238;" d="M153.476,237.975c0,0,10.402,5.565,12.705,10.51c2.303,4.945,10.665,30.411,10.665,30.411
			s6.359,10.459,7.83,12.575c1.471,2.116,0.843,11.054-6.488,10.935c-7.33-0.119-15.802-7.042-16.115-10.207
			c-0.314-3.165-4.096-4.966-4.381-7.725c-0.285-2.759-9.103-20.759-9.103-20.759L153.476,237.975z"/>
		<g>
			<path style="fill:#FFFFFF;stroke:#263238;stroke-linecap:round;stroke-linejoin:round;stroke-miterlimit:10;" d="
				M165.213,448.742c0,0-1.571,9.634,0,14.133h31.876c0,0,1.347-3.372,0-5.498c-1.347-2.125-11.449-3.342-14.591-6.213
				c-3.143-2.871-6.51-7.81-6.51-7.81L165.213,448.742z"/>
			<polygon style="fill:#FFFFFF;stroke:#263238;stroke-linecap:round;stroke-linejoin:round;stroke-miterlimit:10;" points="
				197.688,461.177 164.796,461.177 164.514,462.875 197.688,462.875 			"/>
			<path style="fill:none;stroke:#263238;stroke-linecap:round;stroke-linejoin:round;stroke-miterlimit:10;" d="M172.875,447.568
				c0,0,3.001,0.725,3.337,0.837s3.255,4.602,6.173,5.388c2.918,0.786,5.837,0.635,5.388,2.057"/>
			
				<line style="fill:none;stroke:#263238;stroke-linecap:round;stroke-linejoin:round;stroke-miterlimit:10;" x1="179.517" y1="447.568" x2="176.1" y2="450.089"/>
			
				<line style="fill:none;stroke:#263238;stroke-linecap:round;stroke-linejoin:round;stroke-miterlimit:10;" x1="181.101" y1="449.776" x2="177.809" y2="452.194"/>
			
				<line style="fill:none;stroke:#263238;stroke-linecap:round;stroke-linejoin:round;stroke-miterlimit:10;" x1="183.204" y1="451.709" x2="180.347" y2="454.467"/>
			
				<line style="fill:none;stroke:#263238;stroke-linecap:round;stroke-linejoin:round;stroke-miterlimit:10;" x1="186.092" y1="453.115" x2="184.855" y2="455.85"/>
		</g>
		<path style="fill:#FFFFFF;stroke:#263238;stroke-linecap:round;stroke-linejoin:round;stroke-miterlimit:10;" d="M111.192,462.875
			c0,0-1.228-4.69,0.208-6.428c2.579-3.121-0.315-5.737,2.274-6.822l1.084,1.259c0.211-1.278-0.393-5.161,4.408-5.667
			c5.804-0.612,5.914,3.612,6.227,5.003l-0.095-1.944c2.474,0,1.192,2.471,4.944,6.512c2.864,3.084,2.869,7.038,2.711,8.087H111.192
			z"/>
		<g>
			<defs>
				<path id="XMLID_593_" d="M90.162,284.474c-2.677,1.562-9.588,16.277-5.555,45.49c4.032,29.213,16.114,86.339,18.138,95.076
					c2.024,8.738,9.123,29.748,9.123,29.748s2.714-9.116,15.744-4.243c0.484,0.181,0.979-0.245,0.882-0.753l-2.863-14.888
					c0,0-0.2-10.89-1.137-13.622c-3.53-10.286-5.297-50.009-6.462-55.553c-1.164-5.545,1.124-21.492,1.124-21.492
					s16.315,39.036,16.842,42.866c0.527,3.829,10.477,19.774,10.477,19.774l1.712,14.653c0,0,13.237,22.684,15.568,29.454
					l15.762-3.416l-0.438-11.212l-4.246-1.452l-7.419-25.492c0,0-2.796-11.284-8.633-26.017
					c-3.512-8.865-13.462-43.195-13.462-43.195c-3.093-3.36-6-21.937-6-21.937l-4.778-23.435L90.162,284.474z"/>
			</defs>
			<use xlink:href="#XMLID_593_"  style="overflow:visible;fill:#92E3A9;"/>
			<clipPath id="XMLID_00000169529796304857478620000001827011242284346300_">
				<use xlink:href="#XMLID_593_"  style="overflow:visible;"/>
			</clipPath>
			<path style="opacity:0.2;clip-path:url(#XMLID_00000169529796304857478620000001827011242284346300_);" d="M136.83,306.071
				c-7.99,4.27-25.46,12.48-33.38,7.36c-6.65-4.3-14.17-11.21-18.76-15.67c1.54-8.11,4.08-12.48,5.47-13.29l44.38,10.36
				L136.83,306.071z"/>
			<path style="opacity:0.2;clip-path:url(#XMLID_00000169529796304857478620000001827011242284346300_);" d="M179.52,447.571
				l-15.77,3.41c-2.33-6.77-15.56-29.45-15.56-29.45l-1.72-14.65c0,0-9.94-15.95-10.47-19.78c-0.53-3.83-16.84-42.86-16.84-42.86
				s-0.39,2.73-0.78,6.34c0.12-1.87,0.96-14.44,0.49-18.31l0.4-2.34c0,0,10.74-7.76,12.18-4.8c1.43,2.96-5.63,6-5.63,6
				s6.53,1.97,9.7,2.1c3.16,0.13-0.72,7.87-2.21,8.75c-1.49,0.88-7.25,0-7.25,0s12.36,30.53,23.83,41.15
				c3.63,3.36,7.58,5.37,11.29,6.57c4.21,11.53,6.23,19.71,6.23,19.71l7.42,25.49l4.25,1.46L179.52,447.571z"/>
			
				<use xlink:href="#XMLID_593_"  style="overflow:visible;fill:none;stroke:#263238;stroke-linecap:round;stroke-linejoin:round;stroke-miterlimit:10;"/>
		</g>
		<path id="XMLID_594_" style="fill:#263238;" d="M155.036,264.117c-5.447,10.803-13.971,24.303-13.971,24.303l-3.768,15.052
			c0,0-14.161,8.738-30.396,5.075c-19.044-4.296-22.119-14.038-22.119-14.038l5.114-16.946c2.477-11.318,7.848-32.929,19.002-39.041
			c11.154-6.111,30.29-6.633,38.013-4.157c6.87,2.203,10.673,3.876,12.545,5.912c0,0,2.782,9.542,2.171,12.712
			C161.039,256.036,155.036,264.117,155.036,264.117z"/>
		<polygon style="fill:#FFFFFF;stroke:#263238;stroke-linecap:round;stroke-linejoin:round;stroke-miterlimit:10;" points="
			132.973,461.177 110.703,461.177 111.192,462.875 132.953,462.875 		"/>
		<path style="fill:none;stroke:#263238;stroke-linecap:round;stroke-linejoin:round;stroke-miterlimit:10;" d="M125.824,454.595
			c0,0-7.309-2.419-10.837,0.605"/>
		<path style="fill:none;stroke:#263238;stroke-linecap:round;stroke-linejoin:round;stroke-miterlimit:10;" d="M125.824,452.995
			c0,0-6.427-2.034-10.837,0.684"/>
		<path style="fill:none;stroke:#263238;stroke-linecap:round;stroke-linejoin:round;stroke-miterlimit:10;" d="M125.446,451.42
			c0,0-6.049-2.281-10.459,0.844"/>
		<g style="opacity:0.96;">
			<path style="fill:none;stroke:#263238;stroke-linecap:round;stroke-linejoin:round;stroke-miterlimit:10;" d="M124.493,327.921
				c-0.871,0.198-17.685,6.33-21.047,12.462"/>
			<path style="fill:none;stroke:#263238;stroke-linecap:round;stroke-linejoin:round;stroke-miterlimit:10;" d="M120.406,336.822
				c0.842,1.187,7.983,23.539,11.039,29.67c3.056,6.132,13.342,33.626,15.715,35.209c0,0,3.165,16.022,5.143,18.593
				c1.978,2.571,12.211,23.061,12.211,23.061"/>
			
				<line style="fill:none;stroke:#263238;stroke-linecap:round;stroke-linejoin:round;stroke-miterlimit:10;" x1="175.988" y1="443.355" x2="163.578" y2="446.009"/>
			<path style="fill:none;stroke:#263238;stroke-linecap:round;stroke-linejoin:round;stroke-miterlimit:10;" d="M125.446,444.682
				c0,0-9.934-0.894-13.297,2.887"/>
			<path style="fill:none;stroke:#263238;stroke-linecap:round;stroke-linejoin:round;stroke-miterlimit:10;" d="M113.969,339.393
				c-0.831,4.747-13.293,31.055-16.26,28.088"/>
			<path style="fill:none;stroke:#263238;stroke-linecap:round;stroke-linejoin:round;stroke-miterlimit:10;" d="M118.798,341.767
				c0,0,1.461-6.527,0.077-9.495c-0.529-1.134,10.681,2.769,14.44,1.879"/>
			<path style="fill:none;stroke:#263238;stroke-linecap:round;stroke-linejoin:round;stroke-miterlimit:10;" d="M120.406,309.443
				c0,0-1.961,5.62-2.438,7.4c-0.478,1.78,3.574,8.703,2.438,10.088"/>
			<path style="fill:none;stroke:#263238;stroke-linecap:round;stroke-linejoin:round;stroke-miterlimit:10;" d="M93.16,304.184
				c0,0-2.769,4.241-2.769,7.362s-3.758,4.506-3.758,4.506"/>
			<path style="fill:none;stroke:#263238;stroke-linecap:round;stroke-linejoin:round;stroke-miterlimit:10;" d="M87.256,299.55
				c0,0-3.392,12.744-0.623,28.371c2.769,15.626,7.319,47.473,9.099,55.582c1.78,8.11,5.934,26.308,5.934,28.879
				c0,2.572,4.174,17.209,4.174,17.209"/>
			<path style="fill:none;stroke:#263238;stroke-linecap:round;stroke-linejoin:round;stroke-miterlimit:10;" d="M104.831,407.437
				c0.593,0,11.666,10.681,14.437,10.879"/>
			<path style="fill:none;stroke:#263238;stroke-linecap:round;stroke-linejoin:round;stroke-miterlimit:10;" d="M153.292,400.91
				c0.593,0.198,9.89,4.747,10.286,3.363"/>
		</g>
		<path style="fill:#BFBFBF;stroke:#263238;stroke-linecap:round;stroke-linejoin:round;stroke-miterlimit:10;" d="M141.848,232.559
			c0,0-11.298,1.135-11.694,7.41c-0.396,6.275,4.879,13.396,13.714,13.791c8.835,0.396,9.919-8.271,10.234-12.971
			C154.418,236.089,148.003,232.193,141.848,232.559z"/>
		<g>
			<path style="fill:#BFBFBF;stroke:#263238;stroke-linecap:round;stroke-linejoin:round;stroke-miterlimit:10;" d="
				M138.243,236.377c-1.634-4.579-2.231-9.96-0.82-15.903c1.566-6.595,9.421-15.653,21.319-7.414
				c6.135,4.248,6.509,13.457,4.599,21.899c-0.456,2.013-0.114,3.983-0.782,5.831c-2.351,6.5-6.655,11.498-9.006,11.612
				c-3.932,0.192-11.783-4.56-11.459-8.701"/>
			<path style="fill:none;stroke:#263238;stroke-linecap:round;stroke-linejoin:round;stroke-miterlimit:10;" d="M154.102,232.176
				c0,0-3.171-1.079-6.225,0.8"/>
			<path style="fill:none;stroke:#263238;stroke-linecap:round;stroke-linejoin:round;stroke-miterlimit:10;" d="M160.092,231.976
				c0,0,2.398-1.199,3.959-0.889"/>
			<ellipse style="fill:#263238;" cx="150.285" cy="236.917" rx="0.664" ry="1.057"/>
			<ellipse style="fill:#263238;" cx="160.092" cy="236.33" rx="0.664" ry="1.057"/>
			<path style="fill:#263238;" d="M146.467,224.115l-0.313,4.855c0,0-3.445,1.775-4.307,3.589c-0.861,1.814-0.548,3.772-0.548,3.772
				s-2.092-3.653-3.214-3.354c-0.407,0.108-0.406,1.636-0.406,1.636s-4.68-10.498-0.452-16.057
				C141.456,212.995,146.467,224.115,146.467,224.115z"/>
			<path style="fill:#BFBFBF;stroke:#263238;stroke-linecap:round;stroke-linejoin:round;stroke-miterlimit:10;" d="
				M139.831,235.273c0,0-0.94-3.524-4.111-4.463c-3.171-0.94-0.998,7.509,1.703,8.633c2.701,1.124,3.38,1.879,3.54,0.881"/>
			<path style="fill:none;stroke:#263238;stroke-linecap:round;stroke-linejoin:round;stroke-miterlimit:10;" d="M157.78,236.917
				c0,0-0.264,2.139,0.725,3.391c0.989,1.253-0.264,3.099-1.978,2.637"/>
			<path style="fill:none;stroke:#263238;stroke-linecap:round;stroke-linejoin:round;stroke-miterlimit:10;" d="M156.527,245.913
				c0,0-3.032,0.857-5.538,0"/>
			<path style="fill:#263238;" d="M146.467,224.115c0,0,8.084,1.944,12.961,1.293c4.877-0.651,8-2.904,7.253-8.077
				c-0.747-5.173-6.589-7.558-16.185-9.198c-9.425-1.61-19.306,5.446-14.813,14.064
				C140.176,230.814,146.467,224.115,146.467,224.115z"/>
		</g>
		<g>
			<path style="fill:#BFBFBF;stroke:#263238;stroke-linecap:round;stroke-linejoin:round;stroke-miterlimit:10;" d="
				M157.176,300.902c0,0,0.33,0.497,0.429,1.732c0.099,1.235-4.352,2.718-5.143,2.224s-2.66-2.967-0.489-4.451
				C154.143,298.924,157.176,300.902,157.176,300.902z"/>
			<path style="fill:#BFBFBF;stroke:#263238;stroke-linecap:round;stroke-linejoin:round;stroke-miterlimit:10;" d="M168.879,299.55
				c0,0,0.445,2.885,1.137,4.023c0.692,1.137,4.995,0.037,6.181,0.612s1.286-1.489,0-2.534
				C174.912,300.605,173.28,298.247,168.879,299.55z"/>
			
				<rect x="161.103" y="298.931" style="fill:#BFBFBF;stroke:#263238;stroke-linecap:round;stroke-linejoin:round;stroke-miterlimit:10;" width="5.077" height="80.245"/>
			<path style="fill:#757575;stroke:#263238;stroke-linecap:round;stroke-linejoin:round;stroke-miterlimit:10;" d="
				M169.688,462.875h-12.092V358.86c0-1.014,0.822-1.836,1.837-1.836h8.419c1.014,0,1.836,0.822,1.836,1.836V462.875z"/>
			<path style="fill:#92E3A9;stroke:#263238;stroke-linecap:round;stroke-linejoin:round;stroke-miterlimit:10;" d="
				M178.351,293.397h-29.417c-1.271,0-2.302,1.031-2.302,2.302v1.549c0,1.271,1.031,2.302,2.302,2.302h10.853v4.635h7.711v-4.635
				h10.853c1.271,0,2.302-1.031,2.302-2.302v-1.549C180.653,294.427,179.622,293.397,178.351,293.397z"/>
			<path style="fill:#BFBFBF;stroke:#263238;stroke-linecap:round;stroke-linejoin:round;stroke-miterlimit:10;" d="M136.631,290.88
				c0,0,15.589-2.11,17.128-2.374c1.538-0.264,6.334,7.912,6.334,7.912l-3.565,5.48c0,0-13.6,1.905-14.404,1.113
				c-0.805-0.791-1.16-2.11-1.16-2.11s-6.95,2.634-7.649-2.112C132.615,294.045,132.196,293.341,136.631,290.88z"/>
			<path style="fill:#BFBFBF;stroke:#263238;stroke-linecap:round;stroke-linejoin:round;stroke-miterlimit:10;" d="
				M168.352,293.397c0,0,2.374-4.231,4.747-4.231s11.473,1.582,12.527,2.901c1.055,1.319,3.56,3.428,3.165,5.143
				s-2.901,5.289-5.275,4.689s-8.44,0.067-8.44,0.067s-3.297-0.604-3.56-2.416l2.769-0.759c0,0,0.396-3.822-0.132-4.35
				C173.626,293.913,168.352,293.397,168.352,293.397z"/>
			<path style="fill:none;stroke:#263238;stroke-linecap:round;stroke-linejoin:round;stroke-miterlimit:10;" d="M176.845,301.807
				c0,0,2.892-3.146,2.672-4.333c-0.221-1.187-0.648-4.879-1.357-5.275"/>
			<path style="fill:none;stroke:#263238;stroke-linecap:round;stroke-linejoin:round;stroke-miterlimit:10;" d="M180.847,301.65
				c0,0,2.142-0.884,2.142-2.86s-0.538-4.745-0.538-4.745"/>
			<path style="fill:none;stroke:#263238;stroke-linecap:round;stroke-linejoin:round;stroke-miterlimit:10;" d="M184.675,301.879
				c2.6-2.947,0.951-6.026,0.951-6.026"/>
			<path style="fill:none;stroke:#263238;stroke-linecap:round;stroke-linejoin:round;stroke-miterlimit:10;" d="M154.044,301.966
				c0,0,2.472-3.324,2.077-4.963c-0.396-1.639-2.077-4.804-2.077-4.804"/>
			<path style="fill:none;stroke:#263238;stroke-linecap:round;stroke-linejoin:round;stroke-miterlimit:10;" d="M150.687,302.634
				c0,0,1.379-3.984,1.28-4.787c-0.099-0.803-1.978-4.66-2.077-5.055"/>
			<path style="fill:none;stroke:#263238;stroke-linecap:round;stroke-linejoin:round;stroke-miterlimit:10;" d="M146.631,303.042
				c0.885-1.447,2.962-2.018,1.38-5.194c-1.582-3.176-2.374-3.803-2.374-3.803"/>
			<path style="fill:none;stroke:#263238;stroke-linecap:round;stroke-linejoin:round;stroke-miterlimit:10;" d="M140.963,300.902
				c0.718-0.692,2.103-2.359,2.103-2.359s0.297,1.37,0.89,1.766"/>
			<path style="fill:#263238;" d="M180.003,460.754h-32.204c-0.684,0-1.239,0.555-1.239,1.239v1.306h35.077v-0.91
				C181.637,461.486,180.906,460.754,180.003,460.754z"/>
		</g>
		<path style="fill:none;stroke:#FFFFFF;stroke-linecap:round;stroke-linejoin:round;stroke-miterlimit:10;" d="M99.149,254.672
			c-3.947,9.909-8.653,21.499-9.322,32.275c-0.249,4.01,3.605,5.409,6.854,6.885c6.31,2.867,13.143,4.97,19.94,6.305
			c2.409,0.473,4.969,0.457,7.299,1.033c2.607,0.645,6.284,2.936,8.957,1.463"/>
		<path style="fill:none;stroke:#FFFFFF;stroke-linecap:round;stroke-linejoin:round;stroke-miterlimit:10;" d="M117.928,259.957
			l-5.225,11.252l-3.363,6.748c0,0,2.137,2.209,4.629,2.39c2.492,0.181,3.959,2.518,3.959,2.518s13.168,5.695,14.95,5.635
			c1.781-0.06,3.222-1.774,4.677,0.666"/>
		<path style="fill:none;stroke:#FFFFFF;stroke-linecap:round;stroke-linejoin:round;stroke-miterlimit:10;" d="M109.341,277.957
			c0,0-7.121-2.374-9.692,0"/>
		<path style="fill:none;stroke:#FFFFFF;stroke-linecap:round;stroke-linejoin:round;stroke-miterlimit:10;" d="M110.527,243.019
			c0.593-0.468,7.837,7.444,8.27,13.378"/>
		<path style="fill:none;stroke:#FFFFFF;stroke-linecap:round;stroke-linejoin:round;stroke-miterlimit:10;" d="M120.607,259.957
			c0,0-1.94,3.984-5.12,5.256"/>
		<path style="fill:none;stroke:#FFFFFF;stroke-linecap:round;stroke-linejoin:round;stroke-miterlimit:10;" d="M160.756,260.748
			c0,0-4.023,6.863-8.137,7.981"/>
		<path style="fill:none;stroke:#FFFFFF;stroke-linecap:round;stroke-linejoin:round;stroke-miterlimit:10;" d="M161.714,284.474
			c0,0,5.583-4.308,9.341-4.127"/>
		<path style="fill:none;stroke:#FFFFFF;stroke-linecap:round;stroke-linejoin:round;stroke-miterlimit:10;" d="M160.092,266.953
			c0,0-3.477,2.834-6.048,1.776"/>
	</g>
	<path style="fill:none;stroke:#263238;stroke-width:3;stroke-linecap:round;stroke-linejoin:round;stroke-miterlimit:10;" d="
		M166.259,455.871c28.093,0,23.554,7.004,52.186,7.004s46.048,0.423,46.048-149.577"/>
</g>
</svg>
